<svg width="45" height="44" viewBox="0 0 45 44" fill="none" xmlns="http://www.w3.org/2000/svg">
<path d="M39.7317 -0.000244141H14.2942C11.9249 -0.000244141 9.99737 1.92733 9.99737 4.29663V19.4799C4.30745 20.5917 0 25.6142 0 31.6248C0 38.4484 5.55139 43.9998 12.375 43.9998H39.7317C42.101 43.9998 44.0286 42.0722 44.0286 39.7029V4.29663C44.0286 1.92725 42.101 -0.000244141 39.7317 -0.000244141ZM1.71875 31.6248C1.71875 25.7489 6.49911 20.9685 12.375 20.9685C18.2509 20.9685 23.0312 25.7489 23.0312 31.6248C23.0312 37.5006 18.2509 42.281 12.375 42.281C6.49911 42.281 1.71875 37.5006 1.71875 31.6248ZM15.8411 19.0779V17.0154C15.8411 16.5415 16.2266 16.156 16.7005 16.156H18.763C19.2368 16.156 19.6224 16.5415 19.6224 17.0154V19.0779C19.6224 19.5517 19.2368 19.9373 18.763 19.9373H16.7005C16.2266 19.9373 15.8411 19.5517 15.8411 19.0779ZM42.3099 39.7029C42.3099 41.1245 41.1533 42.281 39.7317 42.281H18.6597C20.6796 41.0852 22.3322 39.3323 23.4036 37.2347V37.6404C23.4036 39.062 24.5602 40.2185 25.9817 40.2185H28.0442C29.4658 40.2185 30.6224 39.062 30.6224 37.6404V35.5779C30.6224 34.1563 29.4658 32.9998 28.0442 32.9998H25.9817C25.4837 32.9998 25.0186 33.1421 24.6238 33.3877C24.7063 32.8116 24.75 32.2232 24.75 31.6248C24.75 31.2792 24.735 30.9372 24.7071 30.5987C25.0834 30.8137 25.5183 30.9373 25.9817 30.9373H28.0442C29.4658 30.9373 30.6224 29.7807 30.6224 28.3591V26.2966C30.6224 24.8751 29.4658 23.7185 28.0442 23.7185H25.9817C24.6466 23.7185 23.5454 24.7388 23.4164 26.0405C22.504 24.2439 21.1663 22.6982 19.5361 21.5374C20.5811 21.2082 21.3411 20.2302 21.3411 19.0779V17.0154C21.3411 15.5938 20.1846 14.4373 18.763 14.4373H16.7005C15.2789 14.4373 14.1224 15.5938 14.1224 17.0154V19.0779C14.1224 19.1789 14.1288 19.2782 14.1402 19.3762C13.5634 19.2934 12.9742 19.2498 12.375 19.2498C12.154 19.2498 11.9343 19.2559 11.7161 19.2674V4.29663C11.7161 2.87505 12.8727 1.71851 14.2942 1.71851H39.7317C41.1533 1.71851 42.3099 2.87505 42.3099 4.29663V39.7029ZM25.1224 37.6404V35.5779C25.1224 35.104 25.5079 34.7185 25.9817 34.7185H28.0442C28.5181 34.7185 28.9036 35.104 28.9036 35.5779V37.6404C28.9036 38.1142 28.5181 38.4998 28.0442 38.4998H25.9817C25.5079 38.4998 25.1224 38.1142 25.1224 37.6404ZM25.1224 28.3591V26.2966C25.1224 25.8228 25.5079 25.4373 25.9817 25.4373H28.0442C28.5181 25.4373 28.9036 25.8228 28.9036 26.2966V28.3591C28.9036 28.833 28.5181 29.2185 28.0442 29.2185H25.9817C25.5079 29.2185 25.1224 28.833 25.1224 28.3591Z" fill="white"/>
<path d="M39.0443 3.781H30.8803C30.4057 3.781 30.0209 4.16574 30.0209 4.64037C30.0209 5.115 30.4057 5.49975 30.8803 5.49975H38.1849V10.656H15.8412V5.49975H23.1459C23.6204 5.49975 24.0053 5.115 24.0053 4.64037C24.0053 4.16574 23.6204 3.781 23.1459 3.781H14.9818C14.5073 3.781 14.1224 4.16574 14.1224 4.64037V11.5154C14.1224 11.99 14.5073 12.3747 14.9818 12.3747H39.0443C39.5189 12.3747 39.9037 11.99 39.9037 11.5154V4.64037C39.9037 4.16574 39.5189 3.781 39.0443 3.781Z" fill="white"/>
<path d="M28.0442 14.4372H25.9817C24.5602 14.4372 23.4036 15.5938 23.4036 17.0154V19.0779C23.4036 20.4994 24.5602 21.656 25.9817 21.656H28.0442C29.4658 21.656 30.6224 20.4994 30.6224 19.0779V17.0154C30.6224 15.5938 29.4658 14.4372 28.0442 14.4372ZM28.9036 19.0779C28.9036 19.5517 28.5181 19.9372 28.0442 19.9372H25.9817C25.5079 19.9372 25.1224 19.5517 25.1224 19.0779V17.0154C25.1224 16.5415 25.5079 16.156 25.9817 16.156H28.0442C28.5181 16.156 28.9036 16.5415 28.9036 17.0154V19.0779Z" fill="white"/>
<path d="M37.3254 14.4372H35.2629C33.8413 14.4372 32.6848 15.5938 32.6848 17.0154V19.0779C32.6848 20.4994 33.8413 21.656 35.2629 21.656H37.3254C38.747 21.656 39.9035 20.4994 39.9035 19.0779V17.0154C39.9035 15.5938 38.747 14.4372 37.3254 14.4372ZM38.1848 19.0779C38.1848 19.5517 37.7993 19.9372 37.3254 19.9372H35.2629C34.789 19.9372 34.4035 19.5517 34.4035 19.0779V17.0154C34.4035 16.5415 34.789 16.156 35.2629 16.156H37.3254C37.7993 16.156 38.1848 16.5415 38.1848 17.0154V19.0779Z" fill="white"/>
<path d="M37.3254 23.7185H35.2629C33.8413 23.7185 32.6848 24.875 32.6848 26.2966V37.6404C32.6848 39.062 33.8413 40.2185 35.2629 40.2185H37.3254C38.747 40.2185 39.9035 39.062 39.9035 37.6404V26.2966C39.9035 24.875 38.747 23.7185 37.3254 23.7185ZM38.1848 37.6404C38.1848 38.1142 37.7993 38.4998 37.3254 38.4998H35.2629C34.789 38.4998 34.4035 38.1142 34.4035 37.6404V26.2966C34.4035 25.8228 34.789 25.4373 35.2629 25.4373H37.3254C37.7993 25.4373 38.1848 25.8228 38.1848 26.2966V37.6404Z" fill="white"/>
<path d="M27.0129 5.49975C27.239 5.49975 27.4607 5.40779 27.6204 5.24795C27.7803 5.08811 27.8723 4.86639 27.8723 4.64037C27.8723 4.41436 27.7804 4.19264 27.6204 4.03279C27.4607 3.87295 27.239 3.781 27.0129 3.781C26.7869 3.781 26.5652 3.87295 26.4054 4.03279C26.2455 4.19264 26.1536 4.41436 26.1536 4.64037C26.1536 4.86639 26.2454 5.08811 26.4054 5.24795C26.5653 5.40779 26.7869 5.49975 27.0129 5.49975Z" fill="white"/>
<path d="M15.1769 25.9689C14.7502 25.7618 14.2358 25.9396 14.0285 26.3666L9.29992 36.1037C9.09255 36.5307 9.27061 37.0449 9.69755 37.2522C9.81846 37.3109 9.94634 37.3387 10.0723 37.3387C10.3911 37.3387 10.6973 37.1606 10.8459 36.8546L15.5746 27.1174C15.782 26.6905 15.6039 26.1763 15.1769 25.9689Z" fill="white"/>
<path d="M10.2029 25.4863C9.13054 24.414 7.38558 24.4139 6.31308 25.4863C5.24066 26.5587 5.24066 28.3037 6.31308 29.3761C6.84933 29.9123 7.55367 30.1803 8.25793 30.1803C8.96227 30.1803 9.6667 29.9122 10.2029 29.3761C11.2752 28.3037 11.2752 26.5587 10.2029 25.4863ZM8.98745 28.1608C8.58518 28.563 7.93068 28.5631 7.5284 28.1608C7.12604 27.7585 7.12604 27.104 7.5284 26.7017C7.7295 26.5006 7.99367 26.4 8.25793 26.4C8.5221 26.4 8.78627 26.5006 8.98737 26.7017C9.38981 27.104 9.38981 27.7585 8.98745 28.1608Z" fill="white"/>
<path d="M14.7001 33.8733C13.6277 34.9457 13.6277 36.6907 14.7001 37.7631C15.2362 38.2993 15.9407 38.5674 16.6449 38.5674C17.3493 38.5674 18.0537 38.2993 18.5899 37.7631C19.6623 36.6907 19.6623 34.9457 18.5899 33.8733C17.5173 32.801 15.7724 32.8011 14.7001 33.8733ZM17.3745 36.5477C16.9722 36.9501 16.3175 36.95 15.9154 36.5477C15.5131 36.1454 15.5131 35.4909 15.9154 35.0886C16.1165 34.8875 16.3807 34.7869 16.6449 34.7869C16.9091 34.7869 17.1733 34.8875 17.3744 35.0886C17.7767 35.4909 17.7767 36.1454 17.3745 36.5477Z" fill="white"/>
</svg>
