<svg width="23" height="23" viewBox="0 0 23 23" fill="none" xmlns="http://www.w3.org/2000/svg">
<path d="M7.53844 8.27397H15.1684C15.2494 8.27397 15.327 8.2422 15.3842 8.18565C15.4415 8.12909 15.4736 8.05239 15.4736 7.97241C15.4736 7.89243 15.4415 7.81573 15.3842 7.75918C15.327 7.70263 15.2494 7.67086 15.1684 7.67086H7.53844C7.45749 7.67086 7.37986 7.70263 7.32263 7.75918C7.26539 7.81573 7.23324 7.89243 7.23324 7.97241C7.23324 8.05239 7.26539 8.12909 7.32263 8.18565C7.37986 8.2422 7.45749 8.27397 7.53844 8.27397Z" fill="white"/>
<path d="M4.45663 7.91657L3.77853 8.55713L3.50349 8.28538C3.47529 8.25675 3.44162 8.23395 3.40443 8.21829C3.36724 8.20263 3.32727 8.19443 3.28684 8.19416C3.24641 8.19389 3.20633 8.20156 3.16893 8.21672C3.13153 8.23189 3.09755 8.25424 3.06896 8.28249C3.04038 8.31074 3.01776 8.34431 3.00242 8.38127C2.98707 8.41823 2.97932 8.45783 2.97959 8.49777C2.97987 8.53772 2.98818 8.57721 3.00403 8.61396C3.01988 8.6507 3.04296 8.68397 3.07194 8.71183L3.55797 9.19211C3.61437 9.24783 3.6906 9.27953 3.77035 9.28041C3.85011 9.28129 3.92704 9.25129 3.98469 9.19683L4.87847 8.35247C4.90771 8.32517 4.93121 8.29243 4.9476 8.25612C4.96399 8.21982 4.97296 8.18067 4.97398 8.14093C4.975 8.10119 4.96806 8.06164 4.95356 8.02456C4.93905 7.98748 4.91727 7.9536 4.88946 7.92486C4.86166 7.89613 4.82838 7.87312 4.79154 7.85714C4.75469 7.84116 4.71502 7.83254 4.67479 7.83177C4.63457 7.831 4.59458 7.83809 4.55714 7.85265C4.5197 7.8672 4.48554 7.88893 4.45663 7.91657Z" fill="white"/>
<path d="M3.97777 6.50986C3.56809 6.50986 3.1676 6.6299 2.82696 6.85479C2.48632 7.07968 2.22083 7.39933 2.06405 7.77331C1.90727 8.1473 1.86626 8.55882 1.94619 8.95583C2.02611 9.35285 2.2234 9.71753 2.51309 10.0038C2.80279 10.29 3.17188 10.4849 3.57369 10.5639C3.97551 10.6428 4.392 10.6023 4.77049 10.4474C5.14899 10.2925 5.47249 10.0301 5.70009 9.69356C5.9277 9.35698 6.04917 8.96127 6.04916 8.55648C6.04854 8.01386 5.83011 7.49364 5.44178 7.10996C5.05345 6.72627 4.52694 6.51046 3.97777 6.50986ZM3.97777 10C3.68881 10 3.40635 9.91537 3.16609 9.75675C2.92583 9.59813 2.73857 9.37268 2.62799 9.1089C2.51741 8.84513 2.48848 8.55488 2.54485 8.27485C2.60123 7.99483 2.74037 7.73762 2.94469 7.53573C3.14902 7.33385 3.40934 7.19636 3.69275 7.14066C3.97615 7.08496 4.26991 7.11355 4.53687 7.22281C4.80383 7.33207 5.03201 7.51709 5.19254 7.75448C5.35308 7.99187 5.43876 8.27097 5.43876 8.55648C5.43839 8.93924 5.28435 9.30621 5.01044 9.57688C4.73654 9.84755 4.36515 9.99981 3.97777 10.0002V10Z" fill="white"/>
<path d="M7.53844 13.2999H15.1684C15.2494 13.2999 15.327 13.2681 15.3842 13.2116C15.4415 13.155 15.4736 13.0783 15.4736 12.9984C15.4736 12.9184 15.4415 12.8417 15.3842 12.7851C15.327 12.7286 15.2494 12.6968 15.1684 12.6968H7.53844C7.45749 12.6968 7.37986 12.7286 7.32263 12.7851C7.26539 12.8417 7.23324 12.9184 7.23324 12.9984C7.23324 13.0783 7.26539 13.155 7.32263 13.2116C7.37986 13.2681 7.45749 13.2999 7.53844 13.2999Z" fill="white"/>
<path d="M4.45663 12.9425L3.77853 13.5831L3.50349 13.3113C3.47529 13.2827 3.44162 13.2599 3.40443 13.2442C3.36724 13.2286 3.32727 13.2204 3.28684 13.2201C3.24641 13.2198 3.20633 13.2275 3.16893 13.2427C3.13153 13.2578 3.09755 13.2802 3.06896 13.3084C3.04038 13.3367 3.01776 13.3703 3.00242 13.4072C2.98707 13.4442 2.97932 13.4838 2.97959 13.5237C2.97987 13.5637 2.98818 13.6032 3.00403 13.6399C3.01988 13.6767 3.04296 13.7099 3.07194 13.7378L3.55797 14.2181C3.61437 14.2738 3.6906 14.3055 3.77035 14.3064C3.85011 14.3072 3.92704 14.2772 3.98469 14.2228L4.87847 13.3784C4.90771 13.3511 4.93121 13.3184 4.9476 13.2821C4.96399 13.2458 4.97296 13.2066 4.97398 13.1669C4.975 13.1271 4.96806 13.0876 4.95356 13.0505C4.93905 13.0134 4.91727 12.9795 4.88946 12.9508C4.86166 12.9221 4.82838 12.8991 4.79154 12.8831C4.75469 12.8671 4.71502 12.8585 4.67479 12.8577C4.63457 12.8569 4.59458 12.864 4.55714 12.8786C4.5197 12.8932 4.48554 12.9149 4.45663 12.9425Z" fill="white"/>
<path d="M3.97777 11.5358C3.56809 11.5358 3.1676 11.6558 2.82696 11.8807C2.48632 12.1056 2.22083 12.4253 2.06405 12.7993C1.90727 13.1732 1.86626 13.5848 1.94619 13.9818C2.02611 14.3788 2.2234 14.7435 2.51309 15.0297C2.80279 15.3159 3.17188 15.5109 3.57369 15.5898C3.97551 15.6688 4.392 15.6283 4.77049 15.4733C5.14899 15.3184 5.47249 15.0561 5.70009 14.7195C5.9277 14.3829 6.04917 13.9872 6.04916 13.5824C6.04854 13.0398 5.83011 12.5196 5.44178 12.1359C5.05345 11.7522 4.52694 11.5364 3.97777 11.5358ZM3.97777 15.026C3.68881 15.026 3.40635 14.9413 3.16609 14.7827C2.92583 14.6241 2.73857 14.3986 2.62799 14.1349C2.51741 13.8711 2.48848 13.5808 2.54485 13.3008C2.60123 13.0208 2.74037 12.7636 2.94469 12.5617C3.14902 12.3598 3.40934 12.2223 3.69275 12.1666C3.97615 12.1109 4.26991 12.1395 4.53687 12.2488C4.80383 12.358 5.03201 12.543 5.19254 12.7804C5.35308 13.0178 5.43876 13.2969 5.43876 13.5824C5.43839 13.9652 5.28435 14.3322 5.01044 14.6028C4.73654 14.8735 4.36515 15.0258 3.97777 15.0262V15.026Z" fill="white"/>
<path d="M4.45663 17.9685L3.77853 18.609L3.50349 18.3373C3.47529 18.3087 3.44162 18.2858 3.40443 18.2702C3.36724 18.2545 3.32727 18.2463 3.28684 18.2461C3.24641 18.2458 3.20633 18.2535 3.16893 18.2686C3.13153 18.2838 3.09755 18.3061 3.06896 18.3344C3.04038 18.3626 3.01776 18.3962 3.00242 18.4332C2.98707 18.4701 2.97932 18.5097 2.97959 18.5497C2.97987 18.5896 2.98818 18.6291 3.00403 18.6659C3.01988 18.7026 3.04296 18.7359 3.07194 18.7637L3.55797 19.244C3.61437 19.2997 3.6906 19.3314 3.77035 19.3323C3.85011 19.3332 3.92704 19.3032 3.98469 19.2487L4.87847 18.4044C4.90771 18.3771 4.93121 18.3443 4.9476 18.308C4.96399 18.2717 4.97296 18.2326 4.97398 18.1928C4.975 18.1531 4.96806 18.1135 4.95356 18.0765C4.93905 18.0394 4.91727 18.0055 4.88946 17.9768C4.86166 17.948 4.82838 17.925 4.79154 17.909C4.75469 17.8931 4.71502 17.8844 4.67479 17.8837C4.63457 17.8829 4.59458 17.89 4.55714 17.9045C4.5197 17.9191 4.48554 17.9408 4.45663 17.9685Z" fill="white"/>
<path d="M3.97777 16.5618C3.56809 16.5618 3.1676 16.6818 2.82696 16.9067C2.48632 17.1316 2.22083 17.4512 2.06405 17.8252C1.90727 18.1992 1.86626 18.6107 1.94619 19.0077C2.02611 19.4047 2.2234 19.7694 2.51309 20.0557C2.80279 20.3419 3.17188 20.5368 3.57369 20.6158C3.97551 20.6947 4.392 20.6542 4.77049 20.4993C5.14899 20.3444 5.47249 20.082 5.70009 19.7455C5.9277 19.4089 6.04917 19.0132 6.04916 18.6084C6.04854 18.0658 5.83011 17.5455 5.44178 17.1619C5.05345 16.7782 4.52694 16.5624 3.97777 16.5618ZM3.97777 20.0519C3.68881 20.0519 3.40635 19.9673 3.16609 19.8086C2.92583 19.65 2.73857 19.4246 2.62799 19.1608C2.51741 18.897 2.48848 18.6068 2.54485 18.3268C2.60123 18.0467 2.74037 17.7895 2.94469 17.5876C3.14902 17.3857 3.40934 17.2483 3.69275 17.1926C3.97615 17.1369 4.26991 17.1654 4.53687 17.2747C4.80383 17.384 5.03201 17.569 5.19254 17.8064C5.35308 18.0438 5.43876 18.3229 5.43876 18.6084C5.43839 18.9911 5.28435 19.3581 5.01044 19.6288C4.73654 19.8995 4.36515 20.0517 3.97777 20.0521V20.0519Z" fill="white"/>
<path d="M7.53844 9.27916H11.6078C11.6887 9.27916 11.7663 9.24739 11.8236 9.19083C11.8808 9.13428 11.913 9.05758 11.913 8.9776C11.913 8.89762 11.8808 8.82092 11.8236 8.76437C11.7663 8.70782 11.6887 8.67605 11.6078 8.67605H7.53844C7.45749 8.67605 7.37986 8.70782 7.32263 8.76437C7.26539 8.82092 7.23324 8.89762 7.23324 8.9776C7.23324 9.05758 7.26539 9.13428 7.32263 9.19083C7.37986 9.24739 7.45749 9.27916 7.53844 9.27916Z" fill="white"/>
<path d="M7.53844 14.3051H11.6078C11.6887 14.3051 11.7663 14.2733 11.8236 14.2168C11.8808 14.1602 11.913 14.0835 11.913 14.0036C11.913 13.9236 11.8808 13.8469 11.8236 13.7903C11.7663 13.7338 11.6887 13.702 11.6078 13.702H7.53844C7.45749 13.702 7.37986 13.7338 7.32263 13.7903C7.26539 13.8469 7.23324 13.9236 7.23324 14.0036C7.23324 14.0835 7.26539 14.1602 7.32263 14.2168C7.37986 14.2733 7.45749 14.3051 7.53844 14.3051Z" fill="white"/>
<path d="M1.47513 3.35356C1.39419 3.35356 1.31656 3.38534 1.25932 3.44189C1.20209 3.49844 1.16993 3.57514 1.16993 3.65512V3.97176C1.16993 4.05173 1.20209 4.12844 1.25932 4.18499C1.31656 4.24154 1.39419 4.27331 1.47513 4.27331C1.55608 4.27331 1.63371 4.24154 1.69094 4.18499C1.74818 4.12844 1.78033 4.05173 1.78033 3.97176V3.65512C1.78033 3.57514 1.74818 3.49844 1.69094 3.44189C1.63371 3.38534 1.55608 3.35356 1.47513 3.35356Z" fill="white"/>
<path d="M1.47513 4.62468C1.39419 4.62468 1.31656 4.65645 1.25932 4.713C1.20209 4.76955 1.16993 4.84626 1.16993 4.92623V7.84129C1.16993 7.92126 1.20209 7.99796 1.25932 8.05452C1.31656 8.11107 1.39419 8.14284 1.47513 8.14284C1.55608 8.14284 1.63371 8.11107 1.69094 8.05452C1.74818 7.99796 1.78033 7.92126 1.78033 7.84129V4.92623C1.78033 4.88663 1.77244 4.84742 1.7571 4.81083C1.74176 4.77425 1.71928 4.741 1.69094 4.713C1.6626 4.685 1.62896 4.66279 1.59193 4.64763C1.5549 4.63248 1.51521 4.62468 1.47513 4.62468Z" fill="white"/>
<path d="M21.7338 12.0786C21.5296 12.0363 21.319 12.0344 21.1141 12.0731C20.9091 12.1117 20.714 12.1901 20.5399 12.3038L17.3964 14.3436V3.02813C17.3964 2.03048 16.5666 1.23764 15.5568 1.23764H13.6323V0.301557C13.6323 0.221579 13.6001 0.144877 13.5429 0.088324C13.4856 0.031771 13.408 0 13.3271 0C13.2461 0 13.1685 0.031771 13.1112 0.088324C13.054 0.144877 13.0219 0.221579 13.0219 0.301557V1.23764H10.4277V0.301557C10.4277 0.221579 10.3955 0.144877 10.3383 0.088324C10.281 0.031771 10.2034 0 10.1225 0C10.0415 0 9.96389 0.031771 9.90665 0.088324C9.84941 0.144877 9.81726 0.221579 9.81726 0.301557V1.23764H7.27393V0.301557C7.27393 0.221579 7.24177 0.144877 7.18454 0.088324C7.1273 0.031771 7.04967 0 6.96873 0C6.88779 0 6.81016 0.031771 6.75292 0.088324C6.69568 0.144877 6.66353 0.221579 6.66353 0.301557V1.23764H4.06933V0.301557C4.06933 0.221579 4.03718 0.144877 3.97994 0.088324C3.9227 0.031771 3.84508 0 3.76413 0C3.68319 0 3.60556 0.031771 3.54832 0.088324C3.49109 0.144877 3.45893 0.221579 3.45893 0.301557V1.23764H1.82286C1.5839 1.23595 1.34698 1.28104 1.12575 1.37029C0.904522 1.45954 0.70337 1.5912 0.533902 1.75766C0.364434 1.92412 0.230004 2.12209 0.138369 2.34014C0.0467334 2.5582 -0.000293488 2.79203 1.37809e-06 3.02813V21.1718C1.37809e-06 22.1695 0.813104 23 1.82286 23H15.5568C16.5666 23 17.3964 22.1695 17.3964 21.1718V18.0977L22.284 14.9263C22.5465 14.7559 22.7519 14.5125 22.8744 14.2267C22.9968 13.9409 23.0307 13.6257 22.9718 13.3209C22.913 13.016 22.7639 12.7353 22.5435 12.5142C22.3232 12.2931 22.0414 12.1415 21.7338 12.0786ZM13.3098 3.12609C13.4166 3.12609 13.5209 3.15736 13.6097 3.21596C13.6984 3.27455 13.7676 3.35784 13.8084 3.45528C13.8493 3.55272 13.86 3.65993 13.8391 3.76338C13.8183 3.86682 13.7669 3.96183 13.6914 4.03641C13.616 4.11099 13.5198 4.16177 13.4151 4.18235C13.3104 4.20293 13.2019 4.19237 13.1033 4.15201C13.0047 4.11164 12.9204 4.0433 12.8611 3.9556C12.8018 3.86791 12.7701 3.76481 12.7701 3.65934C12.7703 3.51796 12.8272 3.38241 12.9284 3.28244C13.0295 3.18247 13.1667 3.12624 13.3098 3.12609ZM10.1295 3.12609C10.2362 3.1261 10.3406 3.15738 10.4293 3.21598C10.5181 3.27458 10.5872 3.35787 10.6281 3.45531C10.6689 3.55275 10.6796 3.65997 10.6587 3.76341C10.6379 3.86684 10.5865 3.96186 10.511 4.03643C10.4356 4.111 10.3394 4.16178 10.2347 4.18235C10.13 4.20293 10.0215 4.19236 9.92288 4.152C9.82427 4.11164 9.73999 4.04329 9.68069 3.9556C9.62138 3.86791 9.58973 3.76481 9.58973 3.65934C9.5899 3.51796 9.64682 3.38241 9.748 3.28244C9.84919 3.18246 9.98638 3.12624 10.1295 3.12609ZM6.94904 3.12609C7.05578 3.12612 7.16011 3.15742 7.24884 3.21603C7.33757 3.27465 7.40672 3.35794 7.44755 3.45538C7.48837 3.55282 7.49904 3.66004 7.4782 3.76347C7.45736 3.8669 7.40594 3.9619 7.33046 4.03646C7.25498 4.11103 7.15881 4.1618 7.05412 4.18236C6.94944 4.20292 6.84093 4.19236 6.74232 4.15199C6.64372 4.11163 6.55944 4.04328 6.50014 3.95559C6.44085 3.8679 6.4092 3.7648 6.4092 3.65934C6.40936 3.51794 6.46629 3.38237 6.5675 3.2824C6.66871 3.18243 6.80593 3.12621 6.94904 3.12609ZM3.76871 3.12609C3.87545 3.1261 3.97979 3.15738 4.06853 3.21598C4.15728 3.27458 4.22645 3.35787 4.26729 3.45531C4.30813 3.55275 4.31881 3.65997 4.29798 3.76341C4.27715 3.86684 4.22574 3.96186 4.15026 4.03643C4.07478 4.111 3.97862 4.16178 3.87393 4.18235C3.76924 4.20293 3.66073 4.19236 3.56211 4.152C3.4635 4.11164 3.37922 4.04329 3.31992 3.9556C3.26062 3.86791 3.22896 3.76481 3.22896 3.65934C3.22913 3.51796 3.28605 3.38241 3.38723 3.28244C3.48842 3.18246 3.62561 3.12624 3.76871 3.12609ZM16.786 21.1718C16.7845 21.4944 16.6548 21.8036 16.4249 22.0327C16.1951 22.2618 15.8833 22.3926 15.5568 22.3969H1.82286C1.14959 22.3969 0.610401 21.8369 0.610401 21.1718V3.02813C0.61002 2.8712 0.6412 2.71576 0.702131 2.57084C0.763061 2.42592 0.852527 2.2944 0.965332 2.18393C1.07814 2.07346 1.21203 1.98623 1.35924 1.92732C1.50645 1.86841 1.66404 1.83898 1.82286 1.84075H3.45893V2.56389C3.00113 2.69637 2.61633 3.13715 2.61633 3.65954C2.61633 3.80874 2.64607 3.95648 2.70385 4.09432C2.76164 4.23216 2.84633 4.3574 2.95311 4.4629C3.05988 4.5684 3.18664 4.65208 3.32614 4.70918C3.46565 4.76627 3.61517 4.79566 3.76617 4.79566C3.91717 4.79566 4.06669 4.76627 4.20619 4.70918C4.3457 4.65208 4.47245 4.5684 4.57923 4.4629C4.686 4.3574 4.7707 4.23216 4.82848 4.09432C4.88626 3.95648 4.91601 3.80874 4.91601 3.65954C4.91962 3.40957 4.83812 3.16565 4.68457 2.96694C4.53102 2.76824 4.31434 2.62629 4.06933 2.56389V1.84075H6.66353V2.56389C6.41767 2.62592 6.19993 2.76753 6.04504 2.96612C5.89015 3.16471 5.80704 3.40883 5.80897 3.65954C5.80897 3.96125 5.93027 4.25059 6.14618 4.46393C6.3621 4.67727 6.65494 4.79712 6.96029 4.79712C7.26563 4.79712 7.55847 4.67727 7.77439 4.46393C7.9903 4.25059 8.1116 3.96125 8.1116 3.65954C8.10726 3.41284 8.02383 3.17385 7.87331 2.97696C7.72278 2.78008 7.51292 2.63545 7.27393 2.56389V1.84075H9.81726V2.56389C9.35946 2.69637 8.97588 3.13715 8.97588 3.65954C8.97588 3.96079 9.09699 4.24971 9.31258 4.46272C9.52817 4.67574 9.82057 4.79541 10.1255 4.79541C10.4304 4.79541 10.7228 4.67574 10.9383 4.46272C11.1539 4.24971 11.275 3.96079 11.275 3.65954C11.2785 3.40951 11.1968 3.16558 11.0432 2.96689C10.8895 2.7682 10.6727 2.62628 10.4277 2.56389V1.84075H13.0219V2.56389C12.7761 2.62593 12.5585 2.76757 12.4038 2.96619C12.249 3.1648 12.1662 3.40892 12.1684 3.65954C12.1684 3.96121 12.2896 4.25052 12.5055 4.46382C12.7214 4.67713 13.0142 4.79697 13.3195 4.79697C13.6248 4.79697 13.9176 4.67713 14.1335 4.46382C14.3494 4.25052 14.4707 3.96121 14.4707 3.65954C14.4707 3.13735 14.0901 2.69657 13.6323 2.56389V1.84075H15.5568C16.23 1.84075 16.786 2.36305 16.786 3.02813V14.7397L15.6396 15.4835C15.6044 15.5064 15.5744 15.5362 15.5514 15.5711C15.5284 15.606 15.513 15.6452 15.5061 15.6863C15.4992 15.7274 15.5011 15.7694 15.5114 15.8098C15.5218 15.8501 15.5405 15.8879 15.5664 15.9207C15.6135 15.9805 15.6817 16.0205 15.7574 16.0329C15.833 16.0453 15.9106 16.029 15.9747 15.9874L20.5129 13.0428L20.882 13.598L13.1932 18.5872L12.8239 18.032L14.2685 17.0948C14.3021 17.0731 14.3309 17.045 14.3534 17.0123C14.376 16.9795 14.3917 16.9427 14.3999 16.9039C14.408 16.8652 14.4083 16.8252 14.4008 16.7863C14.3933 16.7474 14.3781 16.7103 14.3561 16.6772C14.3341 16.6441 14.3058 16.6156 14.2726 16.5933C14.2395 16.5711 14.2022 16.5555 14.163 16.5474C14.1237 16.5394 14.0832 16.5391 14.0439 16.5465C14.0045 16.5539 13.967 16.5689 13.9335 16.5907L12.2351 17.6926C12.232 17.6947 12.2292 17.6972 12.226 17.6994C12.2183 17.7048 12.2107 17.7102 12.2033 17.7164C12.2009 17.7184 12.1987 17.7207 12.1964 17.7228H7.53844C7.45749 17.7228 7.37986 17.7546 7.32263 17.8111C7.26539 17.8677 7.23324 17.9444 7.23324 18.0244C7.23324 18.1043 7.26539 18.181 7.32263 18.2376C7.37986 18.2941 7.45749 18.3259 7.53844 18.3259H11.8524L11.6363 18.7294C11.6269 18.7285 11.6174 18.728 11.6078 18.728H7.53844C7.45749 18.728 7.37986 18.7598 7.32263 18.8163C7.26539 18.8729 7.23324 18.9496 7.23324 19.0296C7.23324 19.1095 7.26539 19.1862 7.32263 19.2428C7.37986 19.2993 7.45749 19.3311 7.53844 19.3311H11.314L10.9611 19.9898C10.9365 20.0357 10.9244 20.0872 10.9258 20.1391C10.9272 20.1911 10.9423 20.2418 10.9694 20.2863C10.9965 20.3309 11.0348 20.3677 11.0806 20.3933C11.1264 20.4189 11.1781 20.4324 11.2307 20.4324C11.2334 20.4324 11.2361 20.4324 11.2388 20.4324L13.8181 20.3656C13.8243 20.3656 13.8305 20.3644 13.8367 20.3639C13.8429 20.3634 13.85 20.363 13.8566 20.362C13.8647 20.3608 13.8725 20.3588 13.8803 20.357C13.8861 20.3556 13.892 20.3547 13.8978 20.353C13.9111 20.349 13.9241 20.3442 13.9368 20.3385C13.9399 20.3371 13.9428 20.3352 13.9459 20.3334C13.9557 20.3287 13.9653 20.3234 13.9746 20.3177C13.9757 20.317 13.9767 20.3166 13.9776 20.316L16.786 18.4938V21.1718ZM13.2539 19.7768L11.7448 19.8158L12.4296 18.5373L13.2539 19.7768ZM13.8976 19.6464L13.5282 19.0914L21.2171 14.1024L21.5863 14.6575L13.8976 19.6464ZM22.0878 14.3129L21.032 12.7253C21.1621 12.6712 21.3024 12.6454 21.4434 12.6496C21.5845 12.6538 21.723 12.6879 21.8496 12.7496C21.9229 12.7844 21.9909 12.8293 22.0517 12.8827C22.1545 12.971 22.2376 13.0795 22.2957 13.2012C22.3537 13.323 22.3855 13.4554 22.3889 13.5899C22.3923 13.7245 22.3672 13.8583 22.3154 13.9828C22.2636 14.1072 22.186 14.2197 22.0878 14.3129Z" fill="white"/>
</svg>
