<svg width="50" height="44" viewBox="0 0 50 44" fill="none" xmlns="http://www.w3.org/2000/svg">
<path d="M36.5477 23.2276C37.0782 23.2276 37.5084 22.7974 37.5084 22.2669C37.5084 21.7364 37.0782 21.3062 36.5477 21.3062H30.0881C29.5576 21.3062 29.1274 21.7364 29.1274 22.2669C29.1274 22.7974 29.5576 23.2276 30.0881 23.2276H36.5477Z" fill="white"/>
<path d="M48.5135 29.2772C47.5164 27.8208 45.6436 27.2323 44 27.835V4.80325C44 2.1546 41.8451 -0.000244141 39.1965 -0.000244141H13.8341C11.1854 -0.000244141 9.03057 2.1546 9.03057 4.80325V9.95797C9.03057 10.4885 9.46077 10.9187 9.99127 10.9187C10.5218 10.9187 10.952 10.4885 10.952 9.95797V4.80325C10.952 3.21406 12.2449 1.92115 13.8341 1.92115H20.9432V9.95788C20.9432 10.318 21.1447 10.6479 21.4651 10.8125C21.7856 10.977 22.1711 10.9486 22.4636 10.7387L26.5153 7.83473L30.567 10.7387C30.7332 10.858 30.9295 10.9186 31.1267 10.9186C31.2767 10.9186 31.4272 10.8835 31.5655 10.8125C31.8859 10.6479 32.0873 10.3181 32.0873 9.95788V1.92115H39.1965C40.7857 1.92115 42.0786 3.21406 42.0786 4.80325V28.6416L35.2573 31.5234C35.3061 31.2819 35.3319 31.0321 35.3319 30.7765C35.3319 28.6999 33.6423 27.0103 31.5657 27.0103H26.0287L22.8626 25.6078C21.4116 24.965 19.8711 24.639 18.284 24.639C16.4038 24.639 14.5348 25.107 12.8724 25.9768V24.6897C12.8724 24.1592 12.4422 23.729 11.9117 23.729H10.952V18.6042C10.952 18.0737 10.5218 17.6435 9.99127 17.6435C9.46077 17.6435 9.03057 18.0737 9.03057 18.6042V23.729H0.960699C0.430201 23.729 0 24.1592 0 24.6897V43.0391C0 43.5696 0.430201 43.9998 0.960699 43.9998H11.9117C12.4422 43.9998 12.8724 43.5696 12.8724 43.0391V42.0791H25.0029C30.0025 42.0791 35.0113 40.9018 39.4877 38.6744L47.0486 34.9121C48.0485 34.4145 48.7832 33.5092 49.0641 32.4283C49.3453 31.3473 49.1445 30.1988 48.5135 29.2772ZM30.1659 8.0873L27.0749 5.87193C26.9076 5.75204 26.7115 5.69209 26.5153 5.69209C26.3191 5.69209 26.1229 5.75204 25.9557 5.87193L22.8646 8.0873V1.92115H30.1659V8.0873ZM1.9214 42.0784V25.6504H10.951V42.0784H1.9214ZM47.2046 31.9447C47.0635 32.4874 46.6947 32.9419 46.1926 33.1917L38.6317 36.954C34.4198 39.0498 29.7071 40.1576 25.0029 40.1576H12.8724V28.2084C14.4642 27.1434 16.367 26.5603 18.284 26.5603C19.6014 26.5603 20.8799 26.8308 22.0844 27.3643L25.4364 28.8491C25.5589 28.9034 25.6914 28.9315 25.8255 28.9315H31.5658C32.5831 28.9315 33.4106 29.759 33.4106 30.7763C33.4106 31.7936 32.5831 32.6212 31.5658 32.6212H23.3838C22.8533 32.6212 22.4231 33.0514 22.4231 33.5819C22.4231 34.1124 22.8533 34.5426 23.3838 34.5426H31.8045C32.6295 34.5426 33.4331 34.3798 34.1931 34.0587L44.5756 29.6725C45.4206 29.3152 46.4099 29.6058 46.9281 30.3626C47.2449 30.8254 47.3457 31.402 47.2046 31.9447Z" fill="white"/>
<path d="M9.99093 15.2422C10.2436 15.2422 10.4915 15.1394 10.6701 14.9606C10.8497 14.781 10.9516 14.5341 10.9516 14.2815C10.9516 14.0278 10.8497 13.7809 10.6701 13.6013C10.4915 13.4226 10.2436 13.3208 9.99093 13.3208C9.73817 13.3208 9.4904 13.4226 9.31171 13.6013C9.13301 13.7809 9.03022 14.0278 9.03022 14.2815C9.03022 14.5341 9.13292 14.782 9.31171 14.9606C9.4904 15.1394 9.73817 15.2422 9.99093 15.2422Z" fill="white"/>
</svg>
