<svg width="41" height="44" viewBox="0 0 41 44" fill="none" xmlns="http://www.w3.org/2000/svg">
<path d="M35.9219 23.031H32.8107C33.5522 21.1008 33.9282 19.0658 33.9282 16.9638C33.9282 13.8276 33.0655 10.7639 31.4334 8.10392C31.1853 7.69941 30.6561 7.57274 30.2515 7.82093C29.847 8.06912 29.7203 8.59832 29.9686 9.00283C31.4346 11.3922 32.2095 14.1452 32.2095 16.9638C32.2095 19.0782 31.7866 21.1164 30.9537 23.031H23.5469C23.2613 23.031 22.9823 23.0596 22.7122 23.1131C24.3564 21.5751 25.3859 19.3876 25.3859 16.9638C25.3859 12.3199 21.608 8.54194 16.9641 8.54194C12.3202 8.54194 8.54219 12.3199 8.54219 16.9638C8.54219 21.6077 12.3202 25.3857 16.9641 25.3857C18.0663 25.3857 19.1196 25.1725 20.0854 24.7858C19.5608 25.4982 19.25 26.3772 19.25 27.3279V38.8152L16.9642 41.7435L5.17533 26.6331C5.16441 26.6177 5.1529 26.6026 5.14087 26.5878C2.93408 23.8802 1.71875 20.4623 1.71875 16.9638C1.71875 8.55758 8.55783 1.71851 16.9641 1.71851C19.7361 1.71851 22.4498 2.4696 24.8117 3.89066C25.2184 4.13541 25.7464 4.00401 25.9911 3.59727C26.2358 3.19062 26.1045 2.66253 25.6977 2.41787C23.0685 0.835928 20.0484 -0.000244141 16.9641 -0.000244141C7.61002 -0.000244141 0 7.60978 0 16.9638C0 20.8435 1.34329 24.6342 3.7834 27.6426C3.78752 27.6482 3.79173 27.6538 3.79603 27.6593L16.2865 43.6689C16.4494 43.8776 16.6993 43.9996 16.964 43.9997C17.2287 43.9997 17.4786 43.8777 17.6414 43.6691L19.536 41.2418C20.1565 42.853 21.7198 43.9998 23.5469 43.9998H35.9219C38.2912 43.9998 40.2188 42.0722 40.2188 39.7029V27.3279C40.2188 24.9586 38.2912 23.031 35.9219 23.031ZM10.2609 16.9638C10.2609 13.2677 13.268 10.2607 16.9641 10.2607C20.6601 10.2607 23.6672 13.2677 23.6672 16.9638C23.6672 20.6599 20.6601 23.6669 16.9641 23.6669C13.268 23.6669 10.2609 20.66 10.2609 16.9638ZM32.3137 24.7498V28.9243L30.2362 27.4353C30.0865 27.3281 29.9111 27.2744 29.7356 27.2744C29.5601 27.2744 29.3846 27.3281 29.2349 27.4353L27.1575 28.9243V24.7498H32.3137ZM38.5 39.7029C38.5 41.1245 37.3435 42.281 35.9219 42.281H23.5469C22.1253 42.281 20.9688 41.1245 20.9688 39.7029V27.3279C20.9688 25.9063 22.1253 24.7498 23.5469 24.7498H25.4387V30.5975C25.4387 30.9196 25.6189 31.2147 25.9054 31.362C26.1919 31.509 26.5368 31.4837 26.7987 31.296L29.7356 29.191L32.6724 31.296C32.8212 31.4026 32.9967 31.4568 33.1732 31.4568C33.3073 31.4568 33.4419 31.4255 33.5657 31.362C33.8522 31.2147 34.0325 30.9196 34.0325 30.5975V24.7498H35.9219C37.3435 24.7498 38.5 25.9063 38.5 27.3279V39.7029Z" fill="white"/>
<path d="M35.5781 38.1278H32.9141C32.4394 38.1278 32.0547 38.5126 32.0547 38.9872C32.0547 39.4618 32.4394 39.8466 32.9141 39.8466H35.5781C36.0528 39.8466 36.4375 39.4618 36.4375 38.9872C36.4375 38.5126 36.0528 38.1278 35.5781 38.1278Z" fill="white"/>
<path d="M28.3284 6.35913C28.5544 6.35913 28.7752 6.26718 28.9359 6.10733C29.0958 5.94749 29.1877 5.72577 29.1877 5.49976C29.1877 5.27374 29.0958 5.05202 28.9359 4.89218C28.7752 4.73233 28.5544 4.64038 28.3284 4.64038C28.1015 4.64038 27.8806 4.73233 27.7199 4.89218C27.5601 5.05202 27.469 5.27374 27.469 5.49976C27.469 5.72577 27.5601 5.94749 27.7199 6.10733C27.8806 6.26718 28.1015 6.35913 28.3284 6.35913Z" fill="white"/>
</svg>
