<svg width="40" height="44" viewBox="0 0 40 44" fill="none" xmlns="http://www.w3.org/2000/svg">
<path d="M29.1676 27.3883H24.16V25.4355C25.8708 24.3864 27.1793 22.7443 27.7966 20.7979H28.9523C31.5159 20.7979 33.6016 18.7123 33.6016 16.1487C33.6016 14.7355 32.967 13.4685 31.9688 12.615V12.2029C31.9688 5.47406 26.4944 -0.000244141 19.7656 -0.000244141C13.0368 -0.000244141 7.5625 5.47406 7.5625 12.2029V12.6151C6.56425 13.4686 5.92969 14.7355 5.92969 16.1488C5.92969 18.7124 8.01531 20.798 10.5789 20.798H11.7347C12.3519 22.7443 13.6605 24.3864 15.3713 25.4356V27.3884H10.3636C4.64913 27.3883 0 32.0374 0 37.7519V43.1404C0 43.6149 0.384742 43.9998 0.859375 43.9998H6.54723C7.02187 43.9998 7.40661 43.6149 7.40661 43.1404C7.40661 42.6658 7.02187 42.281 6.54723 42.281H1.71875V37.7519C1.71875 32.9851 5.59677 29.107 10.3636 29.107H10.7761L15.8858 35.7817C16.0363 35.9784 16.2644 36.1005 16.5115 36.1168C16.5305 36.1181 16.5493 36.1186 16.5682 36.1186C16.7954 36.1186 17.0142 36.0285 17.1759 35.8669L18.9062 34.1366V42.281H14.2816C13.807 42.281 13.4222 42.6658 13.4222 43.1404C13.4222 43.6149 13.807 43.9998 14.2816 43.9998H38.6719C39.1465 43.9998 39.5312 43.6149 39.5312 43.1404V37.7519C39.5312 32.0374 34.8821 27.3883 29.1676 27.3883ZM23.9357 29.107H26.5905L22.8771 33.9579L20.981 32.0618L23.9357 29.107ZM22.738 8.98126C22.402 8.64601 21.8579 8.64662 21.5227 8.9828L20.377 10.1314C19.0938 11.4178 17.3865 12.1263 15.5696 12.1263H13.0644C13.1058 8.46546 16.0952 5.49976 19.7656 5.49976C23.436 5.49976 26.4254 8.46546 26.4668 12.1262H24.976C23.8854 12.1262 22.8654 11.5727 22.2675 10.6698L22.7396 10.1966C23.0748 9.86057 23.0741 9.31641 22.738 8.98126ZM28.9523 19.0793H28.1875V13.2183H28.9523C30.5682 13.2183 31.8828 14.533 31.8828 16.1489C31.8828 17.7648 30.5682 19.0793 28.9523 19.0793ZM19.7656 1.71851C25.3719 1.71851 29.9643 6.14162 30.237 11.6815C29.8287 11.5638 29.398 11.4996 28.9523 11.4996H28.1579C27.7993 7.18362 24.1726 3.78101 19.7656 3.78101C15.3587 3.78101 11.7319 7.18362 11.3734 11.4995H10.5789C10.1332 11.4995 9.7026 11.5639 9.29423 11.6814C9.56691 6.14162 14.1593 1.71851 19.7656 1.71851ZM11.3438 19.0793H10.5789C8.96302 19.0793 7.64844 17.7647 7.64844 16.1488C7.64844 14.5329 8.96302 13.2182 10.5789 13.2182H11.3438V19.0793ZM13.0625 18.2641V13.845H15.5696C17.5833 13.845 19.4894 13.15 21.0156 11.8742C21.9465 13.1026 23.414 13.845 24.976 13.845H26.4688V18.2641C26.4688 18.7287 26.4208 19.1824 26.33 19.6206H22.8252C22.4704 18.6203 21.5152 17.9018 20.3949 17.9018H19.7074C18.2858 17.9018 17.1292 19.0584 17.1292 20.48C17.1292 21.9015 18.2858 23.0581 19.7074 23.0581H20.3949C21.5151 23.0581 22.4704 22.3396 22.8252 21.3393H25.7158C24.5981 23.4852 22.3513 24.9551 19.7655 24.9551C16.0695 24.9552 13.0625 21.9536 13.0625 18.2641ZM21.2543 20.48C21.2543 20.9538 20.8688 21.3393 20.3949 21.3393H19.7074C19.2336 21.3393 18.8481 20.9538 18.8481 20.48C18.8481 20.0061 19.2336 19.6206 19.7074 19.6206H20.3949C20.8688 19.6206 21.2543 20.0062 21.2543 20.48ZM19.7656 26.674C20.7005 26.674 21.6002 26.5208 22.4412 26.2388V28.1709L19.7656 30.8465L17.09 28.1708V26.2387C17.931 26.5208 18.8307 26.674 19.7656 26.674ZM16.6542 33.9579L12.9407 29.107H15.5955L18.5503 32.0618L16.6542 33.9579ZM37.8125 42.281H20.625V34.1366L22.3554 35.8671C22.5172 36.0287 22.736 36.1188 22.9631 36.1188C22.9819 36.1188 23.0009 36.1182 23.0198 36.117C23.2669 36.1006 23.495 35.9785 23.6455 35.7819L28.7552 29.1072H29.1677C33.9345 29.107 37.8125 32.9851 37.8125 37.7519V42.281Z" fill="white"/>
<path d="M31.7682 37.6404H27.6433C27.1686 37.6404 26.7839 38.0252 26.7839 38.4998C26.7839 38.9743 27.1686 39.3591 27.6433 39.3591H31.7682C32.2428 39.3591 32.6275 38.9743 32.6275 38.4998C32.6275 38.0252 32.2428 37.6404 31.7682 37.6404Z" fill="white"/>
<path d="M10.4148 42.281C10.1879 42.281 9.96708 42.3729 9.80723 42.5328C9.64653 42.6926 9.55543 42.9144 9.55543 43.1404C9.55543 43.3664 9.64653 43.5881 9.80723 43.7479C9.96622 43.9077 10.1879 43.9998 10.4148 43.9998C10.6408 43.9998 10.8617 43.9078 11.0224 43.7479C11.1822 43.5881 11.2742 43.3664 11.2742 43.1404C11.2742 42.9144 11.1822 42.6926 11.0224 42.5328C10.8617 42.3729 10.6408 42.281 10.4148 42.281Z" fill="white"/>
</svg>
