<svg width="21" height="16" viewBox="0 0 21 16" fill="none" xmlns="http://www.w3.org/2000/svg">
<path d="M20.201 7.0105L17.8259 2.63605H19.5473C19.8524 2.63605 20.1138 2.37358 20.1138 2.06737C20.1138 1.76115 19.8524 1.49869 19.5473 1.49869H12.2478C11.9428 0.405074 10.7879 -0.229222 9.69843 0.0769902C9.00116 0.273841 8.47821 0.820647 8.28211 1.49869H1.00439C0.699336 1.49869 0.437862 1.76115 0.437862 2.06737C0.437862 2.37358 0.699336 2.63605 1.00439 2.63605H2.72577L0.350703 7.0105C0.132808 7.09799 -0.0197194 7.31671 0.00207018 7.55731C0.00207018 9.59143 1.65808 11.2537 3.68451 11.2537C5.71094 11.2537 7.36695 9.59143 7.36695 7.55731C7.36695 7.31671 7.21442 7.11986 7.01831 7.03237L4.62146 2.61417H8.32569C8.52179 3.29221 9.04474 3.83902 9.74201 4.03587V12.2598C8.21674 12.5223 7.10547 13.8784 7.10547 15.4313C7.10547 15.7375 7.36695 16 7.672 16H12.9669C13.2719 16 13.5334 15.7375 13.5334 15.4313C13.5334 13.8784 12.4221 12.5442 10.8969 12.2598V4.05774C11.5723 3.86089 12.1171 3.33596 12.3132 2.63605H16.0174L13.577 7.0105C13.3373 7.09799 13.1848 7.31671 13.2066 7.55731C13.2066 9.59143 14.8626 11.2537 16.889 11.2537C18.9154 11.2537 20.5714 9.59143 20.5714 7.55731C20.5714 7.31671 20.4407 7.09799 20.201 7.0105ZM5.71094 6.96675H1.65808L3.68451 3.2266L5.71094 6.96675ZM14.8843 6.96675L16.9108 3.2266L18.9372 6.96675H14.8843Z" fill="#DF0C12"/>
</svg>
