<svg width="14" height="18" viewBox="0 0 14 18" fill="none" xmlns="http://www.w3.org/2000/svg">
<path d="M6.85547 0C3.07547 0 0 3.07547 0 6.85547C0 8.35137 0.4725 9.77273 1.36758 10.9652L6.43289 17.7873C6.44555 17.8039 6.46488 17.8102 6.47895 17.825C6.73207 18.096 7.09734 18.0278 7.2777 17.7873C8.73633 15.8411 11.41 12.2063 12.4379 10.8352L12.4386 10.8334L12.445 10.825C13.2732 9.66129 13.7109 8.28879 13.7109 6.85547C13.7109 3.07547 10.6355 0 6.85547 0ZM6.85547 10.5539C4.82027 10.5539 3.15703 8.89066 3.15703 6.85547C3.15703 4.82027 4.82027 3.15703 6.85547 3.15703C8.89066 3.15703 10.5539 4.82027 10.5539 6.85547C10.5539 8.89066 8.89066 10.5539 6.85547 10.5539Z" fill="#DF0C12"/>
</svg>
