<svg width="15" height="15" viewBox="0 0 15 15" fill="none" xmlns="http://www.w3.org/2000/svg">
<path d="M12.4129 11.2793L10.4174 10.7871C10.1497 10.7197 9.9386 10.5146 9.87317 10.251C9.81369 10.0225 9.8702 9.7793 10.0248 9.59766C10.465 9.08203 10.7832 8.45508 10.9378 7.79883C10.9795 7.61719 11.0925 7.45312 11.2531 7.35352C11.485 7.20703 11.6516 6.96387 11.6873 6.67969L11.8449 5.42871C11.8776 5.16504 11.7973 4.89844 11.6189 4.69922C11.5891 4.66406 11.5564 4.63184 11.5207 4.60254C11.3453 4.45312 11.2471 4.2334 11.259 4.00488L11.2828 3.54492C11.2917 3.36328 11.369 3.19043 11.4999 3.05859L11.5326 3.02637C11.8895 2.65137 12.1869 2.00977 11.5683 1.07812C11.0954 0.363281 10.2865 0 9.16836 0C8.75201 0 7.82118 0 6.92306 0.527344C6.816 0.588867 6.69705 0.626953 6.57214 0.632812C4.04433 0.741211 3.69638 1.94824 3.69638 3.12598C3.69638 3.30762 3.72612 3.63574 3.75883 3.94922C3.7856 4.19531 3.68151 4.43555 3.49118 4.59375C3.45549 4.62305 3.41981 4.6582 3.38709 4.69336C3.20569 4.89551 3.12242 5.16211 3.15513 5.43164L3.31275 6.68262C3.35141 6.98438 3.53282 7.23926 3.78857 7.38281C3.96998 7.48535 4.10083 7.65527 4.15139 7.85449C4.30306 8.4668 4.60045 9.05273 5.00192 9.54199C5.15062 9.72363 5.20712 9.96387 5.15062 10.1895L5.13277 10.2539C5.06437 10.5176 4.8562 10.7256 4.58855 10.79L2.58712 11.2793C1.35592 11.5811 0.413193 12.4863 0.0503773 13.6289C-0.166718 14.3086 0.344794 15 1.06745 15H13.9325C14.6552 15 15.1667 14.3086 14.9496 13.6289C14.5838 12.4863 13.6411 11.5811 12.4129 11.2793Z" fill="#FF1515"/>
</svg>
