<svg width="18" height="12" viewBox="0 0 18 12" fill="none" xmlns="http://www.w3.org/2000/svg">
<path d="M17.0667 1.5C17.0667 1.17462 16.675 1.09712 16.4442 1.32646L13.8977 3.85659C12.7085 5.03812 12.7085 6.96188 13.8977 8.14341L16.4442 10.6735C16.675 10.9029 17.0667 10.8254 17.0667 10.5V1.5Z" fill="#DF0C12"/>
<path d="M15.5667 0H1.5C1.17546 0 1.0991 0.39085 1.32917 0.619756L7.4728 6.73243C8.05773 7.31737 9.00893 7.31737 9.59387 6.73243L15.7375 0.619756C15.9676 0.390851 15.8912 0 15.5667 0Z" fill="#DF0C12"/>
<path d="M0.622464 1.32646C0.391644 1.09712 0 1.17462 0 1.5V10.5C0 10.8254 0.391637 10.9029 0.622464 10.6735L3.169 8.14341C4.35818 6.96188 4.35818 5.03812 3.169 3.85659L0.622464 1.32646Z" fill="#DF0C12"/>
<path d="M11.7681 7.4371C11.3619 7.03351 10.7058 7.03457 10.3009 7.43947C9.32627 8.4141 7.74037 8.4141 6.76573 7.43947C6.36086 7.03458 5.70474 7.03351 5.29855 7.43708L1.3295 11.3806C1.09934 11.6092 1.17556 12 1.5 12H15.5667C15.8911 12 15.9673 11.6092 15.7372 11.3806L11.7681 7.4371Z" fill="#DF0C12"/>
</svg>
