<svg width="20" height="21" viewBox="0 0 20 21" fill="none" xmlns="http://www.w3.org/2000/svg">
<path d="M15.0087 13.6555C14.364 13.019 13.5591 13.019 12.9185 13.6555C12.4299 14.14 11.9412 14.6246 11.4607 15.1174C11.3293 15.2529 11.2185 15.2816 11.0583 15.1913C10.7421 15.0188 10.4054 14.8792 10.1015 14.6903C8.68478 13.7992 7.49801 12.6535 6.44676 11.3641C5.92524 10.7235 5.46121 10.0377 5.1368 9.26569C5.0711 9.10964 5.08342 9.00698 5.21072 8.87968C5.69938 8.40744 6.17573 7.92288 6.65619 7.43832C7.32554 6.76486 7.32554 5.97642 6.65208 5.29886C6.27018 4.91285 5.88828 4.53506 5.50638 4.14905C5.11216 3.75483 4.72205 3.3565 4.32372 2.96639C3.67901 2.3381 2.87415 2.3381 2.23354 2.9705C1.74076 3.45506 1.26852 3.95194 0.767535 4.42829C0.303506 4.86768 0.069438 5.40562 0.0201606 6.03391C-0.057862 7.05642 0.192632 8.02143 0.545787 8.96181C1.26852 10.9083 2.36905 12.6371 3.70365 14.2222C5.50638 16.3657 7.65816 18.0617 10.1754 19.2854C11.3088 19.8357 12.4832 20.2587 13.7604 20.3285C14.6391 20.3777 15.4029 20.156 16.0148 19.4702C16.4337 19.0021 16.9059 18.575 17.3494 18.1274C18.0064 17.4622 18.0105 16.6573 17.3576 16.0003C16.5774 15.2159 15.793 14.4357 15.0087 13.6555Z" fill="#DF0C12"/>
<path d="M14.0403 9.63759C14.1717 10.0411 14.5632 10.3248 14.9815 10.2534C15.4002 10.1819 15.6859 9.78262 15.5676 9.3747C15.25 8.27973 14.6621 7.28807 13.8466 6.46919C12.9749 5.59748 11.9127 4.99193 10.7409 4.69187C10.3293 4.58646 9.93873 4.88428 9.87975 5.30507C9.82078 5.72582 10.1165 6.10908 10.5244 6.22808C11.3654 6.47346 12.1293 6.92421 12.7625 7.5574C13.352 8.14692 13.7859 8.85616 14.0403 9.63759Z" fill="#DF0C12"/>
<path d="M16.5938 3.79589C15.0271 2.22918 13.0882 1.17959 10.9453 0.732669C10.5295 0.645953 10.14 0.941914 10.081 1.36254C10.0221 1.78339 10.3164 2.16927 10.7314 2.26074C12.5422 2.65984 14.1814 3.55939 15.5097 4.8841C16.7606 6.13493 17.636 7.67354 18.0651 9.36889C18.1692 9.77999 18.5629 10.062 18.9809 9.99062C19.3996 9.91914 19.6834 9.52052 19.5831 9.10779C19.0948 7.0979 18.0704 5.27612 16.5938 3.79589Z" fill="#DF0C12"/>
</svg>
