<svg width="18" height="18" viewBox="0 0 18 18" fill="none" xmlns="http://www.w3.org/2000/svg">
<path d="M16.8045 15.862L12.2545 11.312C13.1359 10.2233 13.6665 8.84 13.6665 7.33334C13.6665 3.84134 10.8252 1 7.33324 1C3.84128 1 1 3.84131 1 7.33331C1 10.8253 3.84131 13.6667 7.33327 13.6667C8.83991 13.6667 10.2232 13.136 11.3119 12.2547L15.8618 16.8047C15.9918 16.9347 16.1625 17 16.3332 17C16.5039 17 16.6745 16.9347 16.8045 16.8047C17.0652 16.544 17.0652 16.1227 16.8045 15.862ZM7.33327 12.3333C4.57596 12.3333 2.33333 10.0907 2.33333 7.33331C2.33333 4.57597 4.57596 2.33331 7.33327 2.33331C10.0906 2.33331 12.3332 4.57597 12.3332 7.33331C12.3332 10.0907 10.0906 12.3333 7.33327 12.3333Z" fill="#DF0C12" stroke="#DF0C12" stroke-width="2"/>
</svg>
