<svg width="20" height="19" viewBox="0 0 20 19" fill="none" xmlns="http://www.w3.org/2000/svg">
<path d="M13.0153 3.82968C11.8863 1.52422 9.52441 0 6.87514 0C3.08433 0 0.000301025 3.06653 0.000301025 6.83578C0.000301025 7.86013 0.220218 8.84194 0.65427 9.75735L0.0116679 12.9707C-0.070127 13.3798 0.290724 13.7414 0.699855 13.6604L3.95286 13.0173C4.39086 13.225 4.84398 13.383 5.30955 13.4919C4.26594 8.54902 8.01257 3.90928 13.0153 3.82968Z" fill="#DF0C12"/>
<path d="M19.3459 14.7572C19.4581 14.5205 19.5558 14.2792 19.6393 14.034H19.6178C21.0806 9.7405 18.0044 5.22795 13.463 5.00823C13.4629 5.00799 13.4631 5.00846 13.463 5.00823C9.55544 4.82815 6.30876 7.95613 6.30876 11.8356C6.30876 15.6017 9.36967 18.6658 13.1345 18.6713C14.1557 18.6699 15.1345 18.4501 16.0472 18.0171C19.6099 18.7215 19.3321 18.6714 19.4139 18.6714C19.7842 18.6714 20.0608 18.3321 19.9885 17.9706L19.3459 14.7572Z" fill="#DF0C12"/>
</svg>
