<svg width="16" height="16" viewBox="0 0 16 16" fill="none" xmlns="http://www.w3.org/2000/svg">
<path d="M8 0C3.58887 0 0 3.58887 0 8C0 12.4111 3.58887 16 8 16C12.4111 16 16 12.4111 16 8C16 3.58887 12.4111 0 8 0ZM14.3222 10.6397C13.5358 12.5165 11.937 13.9717 9.96755 14.5631C10.0029 14.4976 10.0371 14.4313 10.0701 14.3643C10.2393 14.0219 10.4171 13.7805 10.7155 13.5397C10.9439 13.3553 11.3922 13.0697 11.3189 12.7095C11.266 12.4492 10.9689 12.3424 10.7443 12.2788C10.388 12.1779 10.0069 12.1517 9.63922 12.1263C9.32082 12.104 8.99018 12.1153 8.67933 12.0361C8.21414 11.9177 8.10928 11.515 8.07985 11.0905C8.05362 10.7132 8.05924 10.3252 7.87367 9.98374C7.63472 9.54426 7.08476 9.41927 6.62873 9.37734C6.24376 9.3421 5.85927 9.36067 5.47639 9.29652C5.10802 9.23483 4.75914 9.10545 4.38087 9.12011C3.89064 9.13901 3.67047 9.47129 3.46136 9.85555C3.35814 10.0453 2.70616 11.5047 2.32309 11.8319C1.66255 10.8568 1.24703 9.703 1.16428 8.45957C1.21842 8.44499 1.27207 8.42478 1.32655 8.39766C1.53968 8.29183 1.689 8.1008 1.92093 8.02515C2.14207 7.95312 2.42776 8.017 2.65369 8.03914C2.87851 8.06114 3.10683 8.08443 3.33183 8.0538C3.78099 7.99245 4.01898 7.6822 4.09072 7.24908C4.13336 6.99036 4.10009 6.7302 4.1078 6.46969C4.11996 6.06378 4.38634 5.91814 4.75341 5.88361C5.44677 5.81849 7.06415 6.00223 7.09689 4.93514C7.11085 4.4787 6.56759 4.24313 6.21377 4.1213C5.5248 3.88428 4.77202 3.96703 4.06735 3.80238C3.69254 3.71479 3.37641 3.481 3.11133 3.20469C4.35576 1.93663 6.08737 1.14843 8 1.14843C8.40908 1.14843 8.80949 1.18452 9.19885 1.25366C8.99978 1.29064 8.80327 1.34318 8.61209 1.42039C7.60346 1.82705 7.5731 2.97135 8.01395 3.831C8.28737 4.36413 8.73016 4.81079 9.19267 5.18221C9.64041 5.54162 10.1296 5.75401 10.6261 6.02664C11.2847 6.3888 11.2052 7.33459 11.3718 7.97183C11.5124 8.50925 11.8499 8.9626 12.3818 9.14865C12.7034 9.26102 13.0812 9.17332 13.3628 9.3974C13.6046 9.58928 13.6614 9.9821 13.7997 10.2461C13.9373 10.5095 14.1206 10.6204 14.3222 10.6397Z" fill="#FF1515"/>
</svg>
