<svg width="8" height="7" viewBox="0 0 8 7" fill="none" xmlns="http://www.w3.org/2000/svg">
<path d="M7.87213 3.17308L4.98305 0.134352C4.90058 0.0476116 4.79066 0 4.67346 0C4.55613 0 4.44627 0.04768 4.3638 0.134352L4.10149 0.410308C4.01909 0.496912 3.97369 0.612589 3.97369 0.735928C3.97369 0.859198 4.01909 0.978774 4.10149 1.06538L5.78694 2.84199L0.432192 2.84199C0.190763 2.84199 0 3.04078 0 3.29478L0 3.68491C0 3.9389 0.190763 4.15774 0.432192 4.15774H5.80607L4.10156 5.94427C4.01915 6.03101 3.97376 6.14354 3.97376 6.26688C3.97376 6.39008 4.01915 6.50425 4.10156 6.59092L4.36387 6.86599C4.44634 6.95273 4.55619 7 4.67352 7C4.79072 7 4.90064 6.95212 4.98311 6.86537L7.8722 3.82671C7.95486 3.7397 8.00032 3.62354 8 3.50007C8.00026 3.37618 7.95486 3.25996 7.87213 3.17308Z" fill="white"/>
</svg>
