<svg width="22" height="22" viewBox="0 0 22 22" fill="none" xmlns="http://www.w3.org/2000/svg">
<path d="M21.6788 14.9767C21.545 13.6955 21.3571 12.3946 21.3571 11.1066C21.3571 5.377 16.6945 0.715646 10.9633 0.715646C9.99549 0.715646 9.03244 0.513051 8.10212 0.246121C7.53576 0.0836199 6.94688 0 6.35261 0C2.84978 0 0 2.85015 0 6.35351C0 6.77408 0.0423093 7.19341 0.125133 7.60452C0.356961 8.75523 0.571289 9.93268 0.571289 11.1065C0.571289 16.8367 5.23317 21.4986 10.9633 21.4986C12.0349 21.4986 13.1087 21.6823 14.1609 21.885C14.556 21.9611 14.9584 22 15.3611 22C18.8638 22 21.7135 19.1501 21.7135 15.6472C21.7135 15.4215 21.7019 15.1979 21.6788 14.9767ZM10.643 9.58185C10.7842 9.6276 10.9285 9.67439 11.0757 9.72314C11.2695 9.78723 11.4724 9.85012 11.6687 9.91092C12.481 10.1626 13.3209 10.4228 14.0077 10.9109C14.9131 11.5546 15.3722 12.4657 15.3722 13.6189C15.3722 14.6784 14.9037 15.6041 14.053 16.2252C13.2928 16.7802 12.2454 17.0736 11.0241 17.0736C7.37644 17.0736 6.50034 14.9299 6.31869 14.2729C6.15344 13.6751 6.50415 13.0564 7.10195 12.8911C7.69959 12.7261 8.31843 13.0766 8.48375 13.6744C8.68628 14.4072 9.61217 14.8274 11.0241 14.8274C11.6561 14.8274 13.126 14.7097 13.126 13.6189C13.126 12.8204 12.6994 12.5818 11.0039 12.0564C10.7976 11.9925 10.5843 11.9265 10.3699 11.8555C10.2271 11.8082 10.0871 11.7629 9.95023 11.7185C9.09667 11.4417 8.29042 11.1803 7.65661 10.7327C6.8181 10.1406 6.39289 9.30092 6.39289 8.23726C6.39289 6.59191 7.97153 4.92626 10.9887 4.92626C13.5732 4.92626 14.7544 6.05716 15.2902 7.00573C15.5952 7.5458 15.4046 8.2309 14.8646 8.53601C14.3245 8.84105 13.6395 8.65057 13.3343 8.11043C13.2033 7.87839 12.8045 7.17248 10.9886 7.17248C9.45554 7.17248 8.63904 7.79086 8.63904 8.23726C8.63911 8.80945 8.81185 8.98817 10.643 9.58185Z" fill="#103F7C"/>
</svg>
