<svg width="71" height="53" viewBox="0 0 71 53" fill="none" xmlns="http://www.w3.org/2000/svg">
<path d="M53.9091 46.2375H1.03161C0.461887 46.2375 0 46.6977 0 47.2653C0 47.833 0.461887 48.2931 1.03161 48.2931H2.87338C3.36113 50.9662 5.71334 53 8.53473 53C10.4891 53 12.218 52.0236 13.2588 50.5356C14.2996 52.0236 16.0286 53 17.983 53C20.8046 53 23.1566 50.9663 23.6444 48.2931H31.774C32.2618 50.9662 34.614 53 37.4355 53C39.3898 53 41.1188 52.0236 42.1596 50.5356C43.2004 52.0236 44.9294 53 46.8838 53C49.7054 53 52.0574 50.9663 52.5452 48.2931H53.9091C54.479 48.2931 54.9407 47.833 54.9407 47.2653C54.9407 46.6977 54.4788 46.2375 53.9091 46.2375ZM8.53473 50.9444C6.8565 50.9444 5.43632 49.8232 4.98873 48.2931H12.0806C11.6331 49.8232 10.213 50.9444 8.53473 50.9444ZM17.983 50.9444C16.3048 50.9444 14.8846 49.8232 14.4371 48.2931H21.529C21.0815 49.8232 19.6611 50.9444 17.983 50.9444ZM37.4355 50.9444C35.7573 50.9444 34.337 49.8232 33.8895 48.2931H40.9814C40.5338 49.8232 39.1136 50.9444 37.4355 50.9444ZM46.8838 50.9444C45.2056 50.9444 43.7854 49.8232 43.338 48.2931H50.4298C49.9823 49.8232 48.5621 50.9444 46.8838 50.9444Z" fill="white"/>
<path d="M67.8205 33.1701L57.1814 22.5703C52.7877 18.1926 46.9457 15.7818 40.732 15.7818H32.7702V14.5946C32.7702 12.8066 31.3101 11.3518 29.5154 11.3518H21.7678L19.1405 6.9131L21.2948 2.05563H32.2124L33.3168 4.25626C33.4975 4.61641 33.8617 4.82471 34.2403 4.82457C34.3953 4.82457 34.5527 4.78963 34.7008 4.7159C35.2104 4.4621 35.417 3.84472 35.1621 3.33698L33.7726 0.568178C33.5979 0.219953 33.2407 0 32.8499 0H20.6405C20.6397 0 20.639 0 20.6381 0H14.787C14.3962 0 14.039 0.219953 13.8643 0.568178L12.4751 3.33712C12.2203 3.84486 12.4268 4.46223 12.9364 4.71604C13.4459 4.96997 14.0655 4.76414 14.3204 4.2564L15.4248 2.05577H19.0393L17.0393 6.56528C16.9049 6.86829 16.9254 7.21733 17.0943 7.50279L19.3727 11.3518H17.2883C15.4937 11.3518 14.0335 12.8065 14.0335 14.5946V15.7818H10.8909C10.3212 15.7818 9.85931 16.242 9.85931 16.8096C9.85931 17.3772 10.3212 17.8374 10.8909 17.8374H40.7321C44.4928 17.8374 48.1036 18.8075 51.278 20.6271H39.9366C39.3667 20.6271 38.9049 21.0872 38.9049 21.6549V27.1922C38.9049 30.8123 41.8609 33.7575 45.4943 33.7575H50.9469C51.5167 33.7575 51.9785 33.2973 51.9785 32.7297C51.9785 32.162 51.5167 31.7019 50.9469 31.7019H45.4943C42.9985 31.7019 40.9682 29.6788 40.9682 27.1922V22.6827H54.2445C54.7543 23.1044 55.248 23.5511 55.7224 24.0239L63.4288 31.7019H55.7733C55.2034 31.7019 54.7417 32.162 54.7417 32.7297C54.7417 33.2973 55.2034 33.7575 55.7733 33.7575H65.492L66.3614 34.6236C67.166 35.4253 67.7449 36.3918 68.0667 37.4468H43.0026C41.7936 37.4468 40.6569 36.9777 39.802 36.126L37.9861 34.3168C36.7416 33.0768 35.0868 32.3939 33.3267 32.3939H1.03161C0.461887 32.3939 0 32.8541 0 33.4217C0 33.9894 0.461887 34.4495 1.03161 34.4495H33.327C34.536 34.4495 35.6726 34.9186 36.5274 35.7704L38.3433 37.5796C39.5879 38.8196 41.2427 39.5024 43.0028 39.5024H68.3596C68.3226 43.2223 65.2753 46.2375 61.533 46.2375H58.7239C58.154 46.2375 57.6922 46.6977 57.6922 47.2653C57.6922 47.833 58.154 48.2931 58.7239 48.2931H61.533C66.4359 48.2931 70.4247 44.3191 70.4247 39.4342C70.4247 37.068 69.4998 34.8434 67.8205 33.1701ZM16.0967 14.5947C16.0967 13.9402 16.6312 13.4075 17.2883 13.4075H29.5156C30.1726 13.4075 30.7072 13.9401 30.7072 14.5947V15.7819H16.0968L16.0967 14.5947Z" fill="white"/>
<path d="M1.03161 17.8376H6.07179C6.64151 17.8376 7.1034 17.3774 7.1034 16.8097C7.1034 16.2421 6.64151 15.7819 6.07179 15.7819H1.03161C0.461887 15.7819 0 16.2421 0 16.8097C0 17.3774 0.461887 17.8376 1.03161 17.8376Z" fill="white"/>
<path d="M31.7387 30.1582C32.3084 30.1582 32.7703 29.698 32.7703 29.1304V21.655C32.7703 21.0874 32.3084 20.6272 31.7387 20.6272H17.844C17.2743 20.6272 16.8124 21.0874 16.8124 21.655V29.1304C16.8124 29.698 17.2743 30.1582 17.844 30.1582H31.7387ZM18.8756 22.6828H30.7071V28.1026H18.8756V22.6828Z" fill="white"/>
<path d="M1.03161 28.1026C0.461887 28.1026 0 28.5628 0 29.1304C0 29.698 0.461887 30.1582 1.03161 30.1582H13.3977C13.9675 30.1582 14.4294 29.698 14.4294 29.1304V21.655C14.4294 21.0874 13.9675 20.6272 13.3977 20.6272H1.03161C0.461887 20.6272 0 21.0874 0 21.655C0 22.2226 0.461887 22.6828 1.03161 22.6828H12.3661V28.1026H1.03161Z" fill="white"/>
<path d="M32.3534 42.5586V39.79C32.3534 39.2223 31.8915 38.7621 31.3218 38.7621C30.7521 38.7621 30.2902 39.2223 30.2902 39.79V42.5586C30.2902 43.1262 30.7521 43.5864 31.3218 43.5864C31.8915 43.5864 32.3534 43.1262 32.3534 42.5586Z" fill="white"/>
<path d="M27.9071 42.5586V39.79C27.9071 39.2223 27.4453 38.7621 26.8755 38.7621C26.3058 38.7621 25.8439 39.2223 25.8439 39.79V42.5586C25.8439 43.1262 26.3058 43.5864 26.8755 43.5864C27.4453 43.5864 27.9071 43.1262 27.9071 42.5586Z" fill="white"/>
<path d="M23.4609 42.5586V39.79C23.4609 39.2223 22.999 38.7621 22.4293 38.7621C21.8596 38.7621 21.3977 39.2223 21.3977 39.79V42.5586C21.3977 43.1262 21.8596 43.5864 22.4293 43.5864C22.999 43.5864 23.4609 43.1262 23.4609 42.5586Z" fill="white"/>
</svg>
