<svg width="6" height="5" viewBox="0 0 6 5" fill="none" xmlns="http://www.w3.org/2000/svg">
<path d="M5.9041 2.26649L3.73729 0.0959659C3.67543 0.0340083 3.59299 0 3.50509 0C3.41709 0 3.3347 0.0340571 3.27285 0.0959659L3.07612 0.293077C3.01432 0.354937 2.98027 0.437564 2.98027 0.525663C2.98027 0.613713 3.01432 0.699124 3.07612 0.760984L4.34021 2.02999L0.324144 2.02999C0.143072 2.02999 0 2.17199 0 2.35341L0 2.63208C0 2.8135 0.143072 2.96981 0.324144 2.96981L4.35455 2.96981L3.07617 4.24591C3.01437 4.30786 2.98032 4.38824 2.98032 4.47634C2.98032 4.56434 3.01437 4.64589 3.07617 4.7078L3.2729 4.90428C3.33475 4.96624 3.41714 5 3.50514 5C3.59304 5 3.67548 4.9658 3.73733 4.90384L5.90415 2.73337C5.96615 2.67121 6.00024 2.58825 6 2.50005C6.00019 2.41156 5.96615 2.32854 5.9041 2.26649Z" fill="white"/>
</svg>
