<svg width="6" height="5" viewBox="0 0 6 5" fill="none" xmlns="http://www.w3.org/2000/svg">
<path d="M0.0959026 2.73351L2.26271 4.90403C2.32457 4.96599 2.40701 5 2.49491 5C2.58291 5 2.6653 4.96594 2.72715 4.90403L2.92388 4.70692C2.98568 4.64506 3.01973 4.56244 3.01973 4.47434C3.01973 4.38629 2.98568 4.30088 2.92388 4.23902L1.65979 2.97001L5.67586 2.97001C5.85693 2.97001 6 2.82801 6 2.64659L6 2.36792C6 2.1865 5.85693 2.03019 5.67586 2.03019L1.64545 2.03019L2.92383 0.754094C2.98564 0.692137 3.01968 0.611758 3.01968 0.523659C3.01968 0.435657 2.98564 0.354106 2.92383 0.292197L2.7271 0.0957214C2.66525 0.0337636 2.58286 -2.98736e-07 2.49486 -3.06429e-07C2.40696 -3.14114e-07 2.32452 0.0342032 2.26267 0.096161L0.095854 2.26663C0.0338542 2.32879 -0.000242484 2.41175 1.17224e-06 2.49995C-0.000193862 2.58844 0.0338542 2.67146 0.0959026 2.73351Z" fill="white"/>
</svg>
